<mxfile host="app.diagrams.net" modified="2023-11-30T15:23:12.812Z" agent="Mozilla/5.0 (Windows NT 10.0; Win64; x64) AppleWebKit/537.36 (KHTML, like Gecko) Chrome/119.0.0.0 Safari/537.36" version="22.1.5" etag="DiEOis8P9BzUSakncXsN" type="github">
  <diagram name="Page-1" id="2A7O_rwaesMc3nRfZvrf">
    <mxGraphModel>
      <root>
        <mxCell id="0" />
        <mxCell id="1" parent="0" />
      </root>
    </mxGraphModel>
  </diagram>
</mxfile>
